<svg xmlns="http://www.w3.org/2000/svg" width="166.844" height="16" viewBox="0 0 166.844 16"><g transform="translate(0 0)"><path d="M429.492,41.431h3.229l3.957-5.228h-3.232Z" transform="translate(-308.276 -25.984)" fill="#e4002b"/><path d="M483.86,36.2l3.956,5.228h3.231l-3.955-5.23Z" transform="translate(-347.299 -25.985)" fill="#e4002b"/><path d="M441.672,9.216a5.144,5.144,0,0,0,1.6.2H456.6V2.087L458.161.021H443.275a5.118,5.118,0,0,0-1.6.2A2.4,2.4,0,0,0,439.9,2.609V6.825a2.406,2.406,0,0,0,1.767,2.391M448.228,4.7l2.115,2.8h-4.229Zm5.809,2.8h-.595l-2.02-2.672h1.561V3.112h-3.471V1.935h4.524Zm-11.573-4.78c-.006-.315.269-.785,1.041-.785h3.464V3.112h-3.462V4.829h1.527l-1.97,2.606a.781.781,0,0,1-.6-.719Z" transform="translate(-315.75 -0.015)" fill="#e4002b"/><path d="M369.125,2.973h1.392L371.9,1.148h-2.773V.021h-2.8V1.146l-7.714,0V.021h-2.8v1.12H354.74c-.746,0-1.123.244-1.112.92v.912h2.186V7.563h-2.449c-.747,0-1.124.243-1.113.92v.993h2.47L352.253,12.6h3.213l2.467-3.126h9.073l2.467,3.126h3.212l-2.466-3.126h1.7l1.448-1.914h-4.239ZM358.613,4.879h7.714v.779h-7.714Zm0-1.906h7.714V3.75h-7.714Zm0,3.812h7.714v.779h-7.714Z" transform="translate(-252.835 -0.015)" fill="#e4002b"/><path d="M363.542,37.939h3.88l-1.207-1.534h-2.674v-.85h-2.787v.85h-2.672l-1.2,1.534h3.876v1.05H351.8v1.057c-.009.677.367.921,1.113.921h18.608l1.49-1.978h-9.472Z" transform="translate(-252.513 -25.52)" fill="#e4002b"/><path d="M533.539,7.564l1.71-2.255h-10.3V2.087L526.516.021h-4.649V5.309h-7.489c-.747,0-1.123.243-1.114.92V7.564h8.6v5.642h-7.185v1.335c-.011.677.366.921,1.113.921H531.3l1.71-2.256h-8.059V7.564Z" transform="translate(-368.405 -0.015)" fill="#e4002b"/><path d="M462.114,39.081c0,.266-.056.436-.417.436h-3.786c-.359,0-.415-.17-.415-.436V36.2h-2.543v3.215c0,.942.056,1.224.5,1.659.354.348.785.356,1.712.356h5.285c.928,0,1.356-.008,1.711-.356.443-.435.5-.717.5-1.659v-1.17h-2.543Z" transform="translate(-326.55 -25.985)" fill="#e4002b"/><path d="M468.583,38.247,467.038,36.2h-3.074l1.533,2.045Z" transform="translate(-333.019 -25.984)" fill="#e4002b"/><path d="M29.2,7.308l4.822,8.143h-3.04L26.109,7.465,30.984,0h2.934ZM44.771,0H37.9a3.246,3.246,0,0,0-3.25,3.425v8.283a3.38,3.38,0,0,0,3.562,3.738h6.87V13.02H38.374s-1.1.1-1.1-1.2v-3.3H44.35V6.208H37.274V3.326s-.088-1.048,1.259-1.048h4.821ZM69.108,0H62.241A3.246,3.246,0,0,0,58.992,3.43v8.283a3.378,3.378,0,0,0,3.564,3.738h6.868V13.02h-6.71s-1.1.1-1.1-1.2v-3.3h7.076V6.208H61.612V3.326s-.089-1.048,1.257-1.048h4.823Zm18.815,6.2V3.326s-.087-1.048,1.261-1.048h4.821L95.421,0H88.555A3.246,3.246,0,0,0,85.306,3.43v8.283a3.376,3.376,0,0,0,3.563,3.738h6.747V13.179H89.026s-1.1.1-1.1-1.207ZM106.748,0H99.881a3.247,3.247,0,0,0-3.25,3.425v8.283a3.381,3.381,0,0,0,3.566,3.738h6.866V13.02h-6.71s-1.1.1-1.1-1.2v-3.3h7.074V6.208H99.254V3.326s-.09-1.048,1.255-1.048h4.824ZM50.693,8.883v6.568h2.516V8.934L58.659,0H55.777l-3.72,6.572L48.491,0H45.608ZM71.4,0V15.451h2.463V5.056l6.71,10.395h2.307V0H80.362V10.3L73.756,0Z" transform="translate(-18.74 -0.004)"/><path d="M10.147,0H3.626S0-.174,0,3.492V16Z" transform="translate(0 0)" fill="#e4002b"/></g></svg>